<svg width="217" height="24" viewBox="0 0 217 24" fill="none" xmlns="http://www.w3.org/2000/svg">
<g clip-path="url(#clip0_80_6243)">
<path d="M18.5698 15.3809C18.5174 15.2404 13.8749 6.00221 13.8051 5.86171C13.5607 5.26456 13.1244 4.75523 12.5484 4.40397C11.0998 3.56094 9.24979 4.0527 8.41204 5.51044C7.83608 6.51154 7.87099 7.68827 8.42949 8.61911C8.48185 8.74206 12.9149 17.5939 13.0022 17.7344C13.0546 17.8749 13.1244 17.9978 13.1942 18.1383C13.4385 18.7355 13.8749 19.2448 14.4508 19.5961C15.8994 20.4391 17.7495 19.9649 18.5872 18.5071C19.1806 17.5061 19.1283 16.3118 18.5698 15.3809Z" fill="#0EF387"/>
<path d="M13.212 9.12843C13.7182 8.58397 14.0323 7.84632 14.0323 7.03842C14.0323 5.36992 12.6884 4 11.0129 4C9.98319 4 9.07563 4.50933 8.53458 5.29967C8.42986 5.40505 0.907563 14.7486 0.820297 14.8716C0.314156 15.416 0 16.1537 0 16.9616C0 18.6476 1.36134 20 3.01939 20C4.04913 20 4.95669 19.4907 5.49774 18.7003C5.60246 18.5774 13.1422 9.25137 13.212 9.12843Z" fill="#FAFAFA"/>
<path d="M26.1797 9.12843C26.6858 8.58397 27 7.84632 27 7.03842C27 5.35236 25.6386 4 23.9806 4C22.9508 4 22.0433 4.50933 21.5022 5.29967C21.3975 5.40505 13.8578 14.7486 13.7705 14.8716C13.2644 15.416 12.9502 16.1537 12.9502 16.9616C12.9502 18.6476 14.3115 20 15.9696 20C16.9993 20 17.9069 19.4907 18.4479 18.7003C18.5701 18.5774 26.0924 9.25137 26.1797 9.12843Z" fill="#FAFAFA"/>
</g>
<path d="M36.2642 19V4.45455H46.0653V6.99006H39.3395V10.456H45.5611V12.9915H39.3395V16.4645H46.0938V19H36.2642ZM50.9938 4.45455L53.9271 9.41193H54.0407L56.9881 4.45455H60.4612L56.0222 11.7273L60.5606 19H57.0237L54.0407 14.0355H53.9271L50.9441 19H47.4214L51.9739 11.7273L47.5066 4.45455H50.9938ZM62.0072 19V4.45455H67.7458C68.849 4.45455 69.7889 4.66525 70.5654 5.08665C71.3419 5.50331 71.9338 6.08333 72.341 6.8267C72.7529 7.56534 72.9589 8.41761 72.9589 9.38352C72.9589 10.3494 72.7505 11.2017 72.3339 11.9403C71.9172 12.679 71.3135 13.2543 70.5228 13.6662C69.7368 14.0781 68.7851 14.2841 67.6677 14.2841H64.01V11.8196H67.1705C67.7624 11.8196 68.2501 11.7178 68.6336 11.5142C69.0219 11.3059 69.3107 11.0194 69.5001 10.6548C69.6942 10.2855 69.7913 9.86174 69.7913 9.38352C69.7913 8.90057 69.6942 8.47917 69.5001 8.11932C69.3107 7.75473 69.0219 7.47301 68.6336 7.27415C68.2453 7.07055 67.7529 6.96875 67.1563 6.96875H65.0825V19H62.0072ZM74.5564 19V4.45455H84.3575V6.99006H77.6317V10.456H83.8533V12.9915H77.6317V16.4645H84.3859V19H74.5564ZM98.5687 4.45455V19H95.9124L89.5843 9.84517H89.4778V19H86.4025V4.45455H89.1014L95.3798 13.6023H95.5076V4.45455H98.5687ZM108.6 8.63778C108.543 8.06487 108.299 7.61979 107.869 7.30256C107.438 6.98532 106.853 6.8267 106.114 6.8267C105.612 6.8267 105.189 6.89773 104.843 7.03977C104.497 7.17708 104.232 7.36884 104.048 7.61506C103.868 7.86127 103.778 8.14062 103.778 8.45312C103.768 8.71354 103.823 8.94081 103.941 9.13494C104.064 9.32907 104.232 9.49716 104.445 9.6392C104.658 9.77651 104.905 9.89725 105.184 10.0014C105.463 10.1009 105.762 10.1861 106.079 10.2571L107.386 10.5696C108.02 10.7116 108.603 10.901 109.133 11.1378C109.663 11.3745 110.122 11.6657 110.511 12.0114C110.899 12.357 111.2 12.7642 111.413 13.233C111.63 13.7017 111.742 14.2391 111.746 14.8452C111.742 15.7353 111.514 16.5071 111.065 17.1605C110.62 17.8092 109.976 18.3134 109.133 18.6733C108.295 19.0284 107.284 19.206 106.1 19.206C104.926 19.206 103.903 19.026 103.032 18.6662C102.165 18.3063 101.488 17.7737 101.001 17.0682C100.518 16.358 100.264 15.4796 100.241 14.4332H103.217C103.25 14.9209 103.389 15.3281 103.636 15.6548C103.887 15.9768 104.22 16.2206 104.637 16.3864C105.058 16.5473 105.534 16.6278 106.065 16.6278C106.585 16.6278 107.038 16.5521 107.421 16.4006C107.809 16.2491 108.11 16.0384 108.323 15.7685C108.536 15.4986 108.643 15.1884 108.643 14.8381C108.643 14.5114 108.546 14.2367 108.352 14.0142C108.162 13.7917 107.883 13.6023 107.513 13.446C107.149 13.2898 106.701 13.1477 106.171 13.0199L104.587 12.6222C103.361 12.3239 102.393 11.8575 101.683 11.223C100.972 10.5885 100.62 9.7339 100.624 8.65909C100.62 7.77841 100.854 7.009 101.327 6.35085C101.806 5.69271 102.461 5.17898 103.295 4.80966C104.128 4.44034 105.075 4.25568 106.136 4.25568C107.215 4.25568 108.157 4.44034 108.962 4.80966C109.772 5.17898 110.402 5.69271 110.852 6.35085C111.301 7.009 111.533 7.77131 111.548 8.63778H108.6ZM113.415 19V4.45455H123.216V6.99006H116.49V10.456H122.712V12.9915H116.49V16.4645H123.245V19H113.415ZM124.707 6.99006V4.45455H136.653V6.99006H132.2V19H129.16V6.99006H124.707ZM138.22 19V4.45455H143.959C145.058 4.45455 145.995 4.65104 146.772 5.04403C147.553 5.43229 148.147 5.9839 148.554 6.69886C148.966 7.40909 149.172 8.24479 149.172 9.20597C149.172 10.1719 148.964 11.0028 148.547 11.6989C148.13 12.3902 147.527 12.9205 146.736 13.2898C145.95 13.6591 144.998 13.8438 143.881 13.8438H140.039V11.3722H143.384C143.971 11.3722 144.459 11.2917 144.847 11.1307C145.235 10.9697 145.524 10.7282 145.713 10.4062C145.907 10.0843 146.005 9.68419 146.005 9.20597C146.005 8.72301 145.907 8.31581 145.713 7.98438C145.524 7.65294 145.233 7.40199 144.84 7.23153C144.452 7.05634 143.961 6.96875 143.37 6.96875H141.296V19H138.22ZM146.076 12.3807L149.691 19H146.296L142.759 12.3807H146.076ZM153.453 19H150.157L155.178 4.45455H159.141L164.156 19H160.86L157.217 7.77841H157.103L153.453 19ZM153.247 13.2827H161.031V15.6832H153.247V13.2827ZM177.657 9.54688H174.546C174.489 9.14441 174.373 8.78693 174.198 8.47443C174.023 8.1572 173.798 7.88731 173.523 7.66477C173.248 7.44223 172.931 7.27178 172.571 7.15341C172.216 7.03504 171.83 6.97585 171.414 6.97585C170.661 6.97585 170.005 7.16288 169.446 7.53693C168.888 7.90625 168.454 8.44602 168.147 9.15625C167.839 9.86174 167.685 10.7187 167.685 11.7273C167.685 12.7642 167.839 13.6354 168.147 14.3409C168.459 15.0464 168.895 15.5791 169.453 15.9389C170.012 16.2988 170.658 16.4787 171.392 16.4787C171.804 16.4787 172.185 16.4242 172.536 16.3153C172.891 16.2064 173.206 16.0478 173.48 15.8395C173.755 15.6264 173.982 15.3684 174.162 15.0653C174.347 14.7623 174.475 14.4167 174.546 14.0284L177.657 14.0426C177.576 14.7102 177.375 15.3542 177.053 15.9744C176.736 16.59 176.307 17.1416 175.767 17.6293C175.232 18.1122 174.593 18.4957 173.85 18.7798C173.111 19.0592 172.275 19.1989 171.343 19.1989C170.045 19.1989 168.885 18.9053 167.863 18.3182C166.845 17.7311 166.04 16.8812 165.448 15.7685C164.861 14.6558 164.567 13.3087 164.567 11.7273C164.567 10.1411 164.865 8.79167 165.462 7.67898C166.059 6.56629 166.868 5.71875 167.891 5.13636C168.914 4.54924 170.064 4.25568 171.343 4.25568C172.185 4.25568 172.967 4.37405 173.686 4.6108C174.411 4.84754 175.052 5.19318 175.611 5.64773C176.17 6.09754 176.624 6.64915 176.975 7.30256C177.33 7.95597 177.557 8.70407 177.657 9.54688ZM179.462 19V4.45455H182.537V10.8679H182.729L187.963 4.45455H191.649L186.252 10.9673L191.713 19H188.034L184.05 13.0199L182.537 14.8665V19H179.462ZM192.851 19V4.45455H202.652V6.99006H195.926V10.456H202.148V12.9915H195.926V16.4645H202.68V19H192.851ZM204.697 19V4.45455H210.436C211.534 4.45455 212.472 4.65104 213.248 5.04403C214.029 5.43229 214.624 5.9839 215.031 6.69886C215.443 7.40909 215.649 8.24479 215.649 9.20597C215.649 10.1719 215.44 11.0028 215.024 11.6989C214.607 12.3902 214.003 12.9205 213.213 13.2898C212.427 13.6591 211.475 13.8438 210.358 13.8438H206.515V11.3722H209.86C210.447 11.3722 210.935 11.2917 211.323 11.1307C211.712 10.9697 212.001 10.7282 212.19 10.4062C212.384 10.0843 212.481 9.68419 212.481 9.20597C212.481 8.72301 212.384 8.31581 212.19 7.98438C212.001 7.65294 211.709 7.40199 211.316 7.23153C210.928 7.05634 210.438 6.96875 209.846 6.96875H207.772V19H204.697ZM212.552 12.3807L216.167 19H212.772L209.235 12.3807H212.552Z" fill="#FAFAFA"/>
<defs>
<clipPath id="clip0_80_6243">
<rect width="27" height="16" fill="white" transform="translate(0 4)"/>
</clipPath>
</defs>
</svg>
